<?xml version="1.0" encoding="iso-8859-1"?>
<!-- Generator: Adobe Illustrator 19.0.0, SVG Export Plug-In . SVG Version: 6.00 Build 0)  -->
<svg version="1.1" id="Layer_1" xmlns="http://www.w3.org/2000/svg" xmlns:xlink="http://www.w3.org/1999/xlink" x="0px" y="0px"
	 viewBox="0 0 512 512" style="enable-background:new 0 0 512 512;" xml:space="preserve">
<g>
	<path style="fill:#578CAD;" d="M82.504,422.781v40.881c0,10.421,8.447,18.869,18.869,18.869h13.63
		c10.419,0,18.866-8.449,18.866-18.869v-40.881H82.504z"/>
	<path style="fill:#578CAD;" d="M200.002,463.663c0,10.421,8.449,18.869,18.868,18.869h13.629c10.42,0,18.869-8.449,18.869-18.869
		v-40.881h-51.365V463.663z"/>
</g>
<g>
	<path style="opacity:0.1;fill:#231F20;enable-background:new    ;" d="M100.006,463.663v-40.881H82.504v40.881
		c0,10.421,8.447,18.869,18.869,18.869h13.63c0.653,0,1.298-0.034,1.936-0.098C107.426,481.464,100.006,473.43,100.006,463.663z"/>
	<path style="opacity:0.1;fill:#231F20;enable-background:new    ;" d="M217.503,463.663v-40.881h-17.501v40.881
		c0,10.421,8.449,18.869,18.868,18.869h13.629c0.654,0,1.299-0.034,1.937-0.099C224.925,481.464,217.503,473.43,217.503,463.663z"/>
</g>
<path style="fill:#FF4D30;" d="M380.701,227.439h-28.293c-10.422,0-18.869-8.45-18.869-18.869v-71.541
	c0-10.421,8.447-18.869,18.869-18.869h140.723c10.421,0,18.869,8.449,18.869,18.869v71.541c0,10.42-8.447,18.869-18.869,18.869
	H380.701"/>
<path style="opacity:0.1;fill:#231F20;enable-background:new    ;" d="M359.955,208.57v-71.541c0-10.421,8.447-18.869,18.869-18.869
	h-26.416c-10.422,0-18.869,8.449-18.869,18.869v71.541c0,10.42,8.447,18.869,18.869,18.869h26.416
	C368.401,227.439,359.955,218.99,359.955,208.57z"/>
<g>
	<path style="fill:#3A5D74;" d="M333.539,347.136c-4.656,0-8.431-3.775-8.431-8.431V103.224c0-4.656,3.775-8.431,8.431-8.431
		c4.656,0,8.431,3.775,8.431,8.431v235.481C341.97,343.362,338.194,347.136,333.539,347.136z"/>
	<path style="fill:#3A5D74;" d="M333.539,493.21c-4.656,0-8.431-3.775-8.431-8.431V353.411c0-4.656,3.775-8.431,8.431-8.431
		c4.656,0,8.431,3.775,8.431,8.431V484.78C341.97,489.435,338.194,493.21,333.539,493.21z"/>
</g>
<path style="fill:#90C8EC;" d="M244.126,322.938c-8.378-6.909-9.567-19.292-2.661-27.667c0.672-0.817,1.412-1.542,2.178-2.222
	c-1.828-2.612-3.264-4.069-3.264-4.069c-7.287-7.678-17.584-12.476-29.005-12.476h-88.876c-10.582,0-20.2,4.119-27.353,10.83
	c3.865,2.405,6.922,6.145,8.379,10.832c3.22,10.367-2.571,21.38-12.937,24.603c-2.779,0.863-5.472,1.777-8.083,2.733v99.528h168.863
	v-91.98v-4.403C248.959,326.834,246.543,324.932,244.126,322.938z"/>
<g>
	<path style="fill:#578CAD;" d="M187.879,341.116h-47.17c-4.656,0-8.431-3.775-8.431-8.431c0-4.656,3.775-8.431,8.431-8.431h47.17
		c4.657,0,8.431,3.775,8.431,8.431C196.31,337.341,192.535,341.116,187.879,341.116z"/>
	<path style="fill:#578CAD;" d="M187.879,377.28h-47.17c-4.656,0-8.431-3.775-8.431-8.431s3.775-8.431,8.431-8.431h47.17
		c4.657,0,8.431,3.775,8.431,8.431S192.535,377.28,187.879,377.28z"/>
</g>
<circle style="fill:#90C8EC;" cx="166.936" cy="148.771" r="129.976"/>
<path style="fill:#CAE9F7;" d="M252.368,173.607c0,10.421-8.449,18.868-18.869,18.868H100.374c-10.421,0-18.869-8.446-18.869-18.868
	V124.34c0-10.42,8.449-18.868,18.869-18.868h133.126c10.421,0,18.869,8.449,18.869,18.868L252.368,173.607L252.368,173.607z"/>
<g>
	<path style="opacity:0.1;fill:#231F20;enable-background:new    ;" d="M100.006,316.393c-2.361,2.909-5.572,5.18-9.417,6.376
		c-2.779,0.863-5.472,1.777-8.083,2.733v99.528h17.501v-99.528V316.393z"/>
	<path style="opacity:0.1;fill:#231F20;enable-background:new    ;" d="M54.456,148.773c0-68.846,53.526-125.181,121.232-129.683
		c-2.893-0.192-5.809-0.3-8.751-0.3c-71.786,0-129.982,58.194-129.982,129.983c0,71.785,58.194,129.981,129.982,129.981
		c2.942,0,5.858-0.108,8.751-0.3C107.981,273.951,54.456,217.618,54.456,148.773z"/>
	<path style="opacity:0.1;fill:#231F20;enable-background:new    ;" d="M99.006,173.607V124.34c0-10.42,8.449-18.868,18.869-18.868
		h-17.501c-10.421,0-18.869,8.449-18.869,18.868v49.267c0,10.421,8.449,18.868,18.869,18.868h17.501
		C107.454,192.474,99.006,184.028,99.006,173.607z"/>
</g>
<g>
	<path style="fill:#578CAD;" d="M19.654,383.186C8.8,383.186,0,374.387,0,363.532c0-33.235,30.345-62.507,81.175-78.302
		c10.361-3.22,21.376,2.571,24.599,12.937c3.22,10.367-2.571,21.38-12.937,24.603C60.82,332.718,39.31,349.1,39.31,363.533
		C39.31,374.387,30.509,383.186,19.654,383.186z"/>
	<path style="fill:#578CAD;" d="M351.758,319.782c-5.633-9.28-17.72-12.238-27-6.606c-11.525,6.994-34.241-1.078-57.873-20.565
		c-8.373-6.906-20.76-5.715-27.667,2.661c-6.906,8.374-5.717,20.759,2.661,27.667c38.405,31.671,76.048,40.36,103.272,23.843
		C354.429,341.15,357.388,329.063,351.758,319.782z"/>
</g>
<g>
</g>
<g>
</g>
<g>
</g>
<g>
</g>
<g>
</g>
<g>
</g>
<g>
</g>
<g>
</g>
<g>
</g>
<g>
</g>
<g>
</g>
<g>
</g>
<g>
</g>
<g>
</g>
<g>
</g>
</svg>
