<?xml version="1.0" encoding="iso-8859-1"?>
<!-- Generator: Adobe Illustrator 19.0.0, SVG Export Plug-In . SVG Version: 6.00 Build 0)  -->
<svg version="1.1" id="Capa_1" xmlns="http://www.w3.org/2000/svg" xmlns:xlink="http://www.w3.org/1999/xlink" x="0px" y="0px"
	 viewBox="0 0 511.992 511.992" style="enable-background:new 0 0 511.992 511.992;" xml:space="preserve">
<g>
	<polygon style="fill:#D9D9D9;" points="263.266,251.582 307.589,269.237 320.725,259.421 329.755,304.548 316.452,313.375 
		254.394,304.548 254.394,304.548 165.739,401.651 149.002,418.238 113.541,453.548 103.601,463.444 79.44,434.534 86.944,427.066 
		122.404,391.755 95.807,365.273 60.346,391.755 48.844,403.214 23.809,375.168 33.749,365.273 69.209,329.962 85.955,313.375 
		139.15,260.41 93.388,260.683 86.405,264.091 81.418,222.575 94.165,216.289 156.876,216.837 190.888,216.289 	"/>
	<ellipse style="fill:#D9D9D9;" cx="236.67" cy="145.65" rx="106.37" ry="105.93"/>
	<path style="fill:#D9D9D9;" d="M226.561,154.479l31.382-104.166l2.957-7.724c-7.795-1.81-15.881-2.869-24.232-2.869
		c-58.756,0-106.381,47.431-106.381,105.931s47.634,105.931,106.381,105.931c39.018,0,73.039-20.983,91.551-52.171l-1.907-0.794
		L226.561,154.479z"/>
</g>
<polygon style="fill:#FBB540;" points="459.582,30.892 475.772,63.713 511.992,68.975 485.783,94.522 491.971,130.591 
	459.582,113.554 427.185,130.591 433.373,94.522 407.164,68.975 443.384,63.713 "/>
<g>
	<rect x="406.06" y="331.03" style="fill:#F7E4BA;" width="17.655" height="17.655"/>
	<rect x="406.06" y="366.34" style="fill:#F7E4BA;" width="17.655" height="17.655"/>
	<rect x="423.72" y="348.69" style="fill:#F7E4BA;" width="17.655" height="17.655"/>
	<rect x="388.41" y="348.69" style="fill:#F7E4BA;" width="17.655" height="17.655"/>
</g>
<g>
	<rect x="344.27" y="428.13" style="fill:#EA6B65;" width="17.655" height="17.655"/>
	<rect x="344.27" y="463.44" style="fill:#EA6B65;" width="17.655" height="17.655"/>
	<rect x="361.92" y="445.79" style="fill:#EA6B65;" width="17.655" height="17.655"/>
	<rect x="326.61" y="445.79" style="fill:#EA6B65;" width="17.655" height="17.655"/>
</g>
<g>
	<rect x="238.34" y="392.82" style="fill:#F7E4BA;" width="17.655" height="17.655"/>
	<rect x="238.34" y="428.13" style="fill:#F7E4BA;" width="17.655" height="17.655"/>
	<rect x="255.99" y="410.48" style="fill:#F7E4BA;" width="17.655" height="17.655"/>
	<rect x="220.68" y="410.48" style="fill:#F7E4BA;" width="17.655" height="17.655"/>
</g>
<g>
	<rect x="70.61" y="92.69" style="fill:#B3E4E8;" width="17.655" height="17.655"/>
	<rect x="70.61" y="128" style="fill:#B3E4E8;" width="17.655" height="17.655"/>
	<rect x="88.27" y="110.34" style="fill:#B3E4E8;" width="17.655" height="17.655"/>
	<rect x="52.957" y="110.34" style="fill:#B3E4E8;" width="17.655" height="17.655"/>
</g>
<ellipse style="fill:#3B869E;" cx="224.35" cy="158.89" rx="22.17" ry="22.07"/>
<path style="fill:#4799CF;" d="M260.9,42.589l-2.957,7.724l-31.382,104.166l99.752,44.138l1.907,0.794
	c9.366-15.775,14.83-34.11,14.83-53.76C343.05,95.457,307.96,53.518,260.9,42.589z"/>
<polygon style="fill:#F27E55;" points="307.589,269.237 343.05,242.755 356.07,232.779 381.979,266.51 369.647,278.065 
	316.452,313.375 "/>
<path style="fill:#B9B9B9;" d="M343.05,242.755l26.598,35.31l21.045-19.721c7.671-7.186,8.73-18.962,2.463-27.392l0,0
	c-6.921-9.304-20.162-11.149-29.378-4.087L343.05,242.755z"/>
<polygon style="fill:#F27E55;" points="92.991,260.692 53.637,281.004 44.13,286.063 28.302,248.643 40.555,242.755 94.165,216.289 
	"/>
<g>
	<path style="fill:#B9B9B9;" d="M53.637,281.004l-13.082-38.25L9.226,257.823c-8.757,5.835-11.741,17.267-6.947,26.615l0,0
		c5.288,10.311,18.044,14.292,28.301,8.836L53.637,281.004z"/>
	<path style="fill:#B9B9B9;" d="M33.749,365.273l-22.166,22.069c-7.345,7.309-7.345,19.174,0,26.483l0,0
		c7.345,7.309,19.253,7.309,26.598,0l22.166-22.069L33.749,365.273z"/>
	<path style="fill:#B9B9B9;" d="M86.944,427.066l26.598,26.483l-22.166,22.069c-7.345,7.309-19.253,7.309-26.598,0l0,0
		c-7.345-7.309-7.345-19.174,0-26.483L86.944,427.066z"/>
</g>
<polygon style="fill:#277BAA;" points="174.61,269.237 139.15,304.548 174.61,339.858 210.071,304.548 "/>
<g>
	<path style="fill:#B3E4E8;" d="M317.405,127.996H299.75c0-28.089-27.586-35.275-28.76-35.566l4.255-17.134
		C289.837,78.915,317.405,94.61,317.405,127.996z"/>
	<rect x="299.75" y="145.65" style="fill:#B3E4E8;" width="17.655" height="17.655"/>
</g>
<polygon style="fill:#F27E55;" points="172.924,386.529 92.214,307.143 86.158,313.163 79.767,319.669 160.151,398.703 
	164.167,403.214 165.739,401.651 176.199,390.193 "/>
<g>
</g>
<g>
</g>
<g>
</g>
<g>
</g>
<g>
</g>
<g>
</g>
<g>
</g>
<g>
</g>
<g>
</g>
<g>
</g>
<g>
</g>
<g>
</g>
<g>
</g>
<g>
</g>
<g>
</g>
</svg>
