<?xml version="1.0" encoding="iso-8859-1"?>
<!-- Generator: Adobe Illustrator 19.0.0, SVG Export Plug-In . SVG Version: 6.00 Build 0)  -->
<svg version="1.1" id="Layer_1" xmlns="http://www.w3.org/2000/svg" xmlns:xlink="http://www.w3.org/1999/xlink" x="0px" y="0px"
	 viewBox="0 0 512 512" style="enable-background:new 0 0 512 512;" xml:space="preserve">
<g>
	<path style="fill:#AAB2BC;" d="M233.387,159.969c-0.429,0-0.861-0.025-1.297-0.078c-5.848-0.709-10.015-6.024-9.306-11.873
		c0.249-2.052,3.294-20.05,33.216-20.05s32.966,17.999,33.215,20.051c0.708,5.849-3.459,11.163-9.308,11.872
		c-5.362,0.652,11.281,171.465,9.956,166.38c-0.83-0.851-60.269-4.632-68.283-4.632c-8.017,0-43.932,69.125-8.336-80.587
		C212.027,245.725,238.228,159.969,233.387,159.969z"/>
	<path style="fill:#AAB2BC;" d="M110.719,81.906l38.405-5.155l46.964,14.851l18.863,17.086l3.95-49.651
		c0.061-0.757,0.037-1.501-0.058-2.226h0.002c-0.126-0.967-1.426-9.688-8.162-18.281c-6.14-7.83-18.065-17.165-40.018-17.165
		c-40.523,0-50.808,24.499-52.174,28.354c-0.012,0.033-0.023,0.066-0.035,0.1c-0.064,0.186-0.105,0.314-0.123,0.373l0.013,0.004
		c-0.063,0.206-0.132,0.409-0.183,0.622L110.719,81.906z"/>
</g>
<path style="fill:#434A54;" d="M226.832,88.426c-15.128-16.005-37.613-24.12-66.832-24.12c-39.269,0-63.236,19.673-76.428,36.176
	c-14.074,17.607-18.995,35.282-19.197,36.025l0,0L3.34,359.824c-1.553,5.682,1.795,11.548,7.478,13.1
	c0.941,0.258,1.888,0.38,2.818,0.38c4.689,0,8.987-3.115,10.283-7.856l168.171,17.137c-0.765,5.841,3.352,11.196,9.192,11.961
	c0.47,0.062,0.937,0.091,1.397,0.091c5.274,0,9.859-3.912,10.562-9.283l32.161-245.773c0.017-0.125,0.018-0.247,0.03-0.371
	l0.484,0.027C245.984,138.055,247.311,110.092,226.832,88.426z"/>
<path style="fill:#AAB2BC;" d="M401.879,81.906l-38.406-5.155l-46.965,14.851l-18.862,17.086l-3.95-49.651
	c-0.061-0.757-0.037-1.501,0.057-2.226h-0.001c0.126-0.967,1.426-9.688,8.163-18.281c6.138-7.83,18.063-17.165,40.017-17.165
	c40.523,0,50.808,24.499,52.174,28.354c0.012,0.033,0.023,0.066,0.034,0.1c0.065,0.186,0.105,0.314,0.124,0.373l-0.013,0.004
	c0.062,0.206,0.131,0.409,0.183,0.622L401.879,81.906z"/>
<path style="fill:#434A54;" d="M285.764,88.426c15.128-16.005,37.614-24.12,66.834-24.12c39.268,0,63.235,19.673,76.427,36.176
	c14.074,17.607,18.995,35.282,19.198,36.025h-0.001l61.034,223.316c1.554,5.682-1.794,11.548-7.477,13.1
	c-0.941,0.258-1.888,0.38-2.818,0.38c-4.689,0-8.987-3.115-10.283-7.856l-168.171,17.137c0.765,5.841-3.351,11.196-9.192,11.961
	c-0.471,0.062-0.936,0.091-1.397,0.091c-5.275,0-9.86-3.912-10.563-9.283l-32.16-245.773c-0.017-0.125-0.018-0.247-0.029-0.371
	l-0.485,0.027C266.611,138.055,265.285,110.092,285.764,88.426z"/>
<g>
	<path style="fill:#656D78;" d="M106.666,277.302C47.85,277.302,0,325.152,0,383.967s47.85,106.667,106.666,106.667
		s106.667-47.851,106.667-106.667C213.333,325.152,165.482,277.302,106.666,277.302z"/>
	<path style="fill:#656D78;" d="M405.333,277.302c-58.816,0-106.667,47.851-106.667,106.666
		c0,58.816,47.851,106.667,106.667,106.667S512,442.784,512,383.967S464.149,277.302,405.333,277.302z"/>
</g>
<g>
	<path style="fill:#5D9CEC;" d="M106.666,309.302C65.495,309.302,32,342.798,32,383.967c0,41.172,33.495,74.667,74.666,74.667
		c41.172,0,74.667-33.495,74.667-74.667C181.333,342.798,147.838,309.302,106.666,309.302z"/>
	<path style="fill:#5D9CEC;" d="M405.333,309.302c-41.172,0-74.667,33.496-74.667,74.666c0,41.172,33.495,74.667,74.667,74.667
		c41.171,0,74.667-33.495,74.667-74.667C480,342.798,446.504,309.302,405.333,309.302z"/>
</g>
<g>
	<path style="opacity:0.2;fill:#FFFFFF;enable-background:new    ;" d="M405.333,309.302c-1.794,0-3.571,0.068-5.333,0.192
		c38.691,2.745,69.333,35.097,69.333,74.474c0,39.379-30.642,71.73-69.333,74.476c1.762,0.124,3.539,0.191,5.333,0.191
		c41.171,0,74.667-33.495,74.667-74.667C480,342.798,446.504,309.302,405.333,309.302z"/>
	<path style="opacity:0.2;fill:#FFFFFF;enable-background:new    ;" d="M106.666,309.302c-1.793,0-3.571,0.068-5.333,0.192
		c38.691,2.745,69.333,35.097,69.333,74.474c0,39.379-30.642,71.73-69.333,74.476c1.762,0.124,3.54,0.191,5.333,0.191
		c41.172,0,74.667-33.495,74.667-74.667C181.333,342.798,147.838,309.302,106.666,309.302z"/>
</g>
<ellipse style="fill:#CCD1D9;" cx="255.48" cy="327.68" rx="34.433" ry="34.32"/>
<g>
</g>
<g>
</g>
<g>
</g>
<g>
</g>
<g>
</g>
<g>
</g>
<g>
</g>
<g>
</g>
<g>
</g>
<g>
</g>
<g>
</g>
<g>
</g>
<g>
</g>
<g>
</g>
<g>
</g>
</svg>
