<svg id="Capa_1" enable-background="new 0 0 512 512" height="512" viewBox="0 0 512 512" width="512" xmlns="http://www.w3.org/2000/svg"><g><g><g><g><g><g><g><g><g><circle cx="256" cy="256" fill="#ffc2c2" r="256"/></g></g></g></g></g></g></g></g><path d="m512 256c0-28.778-4.749-56.446-13.504-82.265l-63.496-63.495-358 225.703 176.04 176.04c.986.011 1.972.017 2.96.017 141.385 0 256-114.615 256-256z" fill="#ff9696"/><g><path d="m201.267 326.239h109.466v59.62h-109.466z" fill="#707789"/></g><g><path d="m256.121 326.239h54.612v59.62h-54.612z" fill="#555a66"/></g><g><path d="m77 110.24h358v225.704h-358z" fill="#555a66"/></g><g><path d="m256.121 110.24h178.879v225.704h-178.879z" fill="#333940"/></g><g><path d="m100.413 135.262h311.175v175.659h-311.175z" fill="#2fddd0"/></g><g><path d="m256.121 135.262h155.467v175.659h-155.467z" fill="#29ccbc"/></g><g><g><path d="m226.814 238.789h-54.178v-18.41h43.871v-19.377h-43.871v-15.942h-19.377v16.935c-21.548 4.485-37.788 23.623-37.788 46.482 0 26.178 21.298 47.476 47.476 47.476 22.859 0 41.997-16.239 46.482-37.788h8.6l22.735 25.941 14.573-12.771zm-63.866 37.787c-15.494 0-28.099-12.605-28.099-28.099 0-12.091 7.676-22.422 18.41-26.377v36.066h36.066c-3.956 10.734-14.287 18.41-26.377 18.41z" fill="#707789"/></g><g><circle cx="162.948" cy="165.673" fill="#707789" r="15.444"/></g></g><g><path d="m183.288 367.289h145.423v39.095h-145.423z" fill="#555a66"/></g><g><path d="m256.121 367.289h72.591v39.095h-72.591z" fill="#333940"/></g><g><g><path d="m280.005 157.819h105.556v30.624h-105.556z" fill="#109e8d"/></g><g><path d="m280.005 257.739h105.556v30.624h-105.556z" fill="#109e8d"/></g><g><path d="m280.005 207.779h105.556v30.624h-105.556z" fill="#109e8d"/></g></g></g></svg>