<?xml version="1.0" encoding="iso-8859-1"?>
<!-- Generator: Adobe Illustrator 19.0.0, SVG Export Plug-In . SVG Version: 6.00 Build 0)  -->
<svg version="1.1" id="Layer_1" xmlns="http://www.w3.org/2000/svg" xmlns:xlink="http://www.w3.org/1999/xlink" x="0px" y="0px"
	 viewBox="0 0 511.68 511.68" style="enable-background:new 0 0 511.68 511.68;" xml:space="preserve">
<g>
	<path style="fill:#965353;" d="M255.836,0.004c-11.742,0-21.283,9.525-21.283,21.283v469.09c0,11.758,9.541,21.299,21.283,21.299
		c11.773,0,21.307-9.541,21.307-21.299V21.287C277.143,9.529,267.61,0.004,255.836,0.004z"/>
	<path style="fill:#965353;" d="M74.952,74.924c-8.338,8.323-8.338,21.798,0,30.122l331.671,331.693
		c8.338,8.308,21.798,8.308,30.137,0c8.307-8.322,8.307-21.798,0-30.121L105.058,74.924C96.751,66.617,83.259,66.617,74.952,74.924z
		"/>
	<path style="fill:#965353;" d="M0,255.84c0,11.758,9.541,21.283,21.299,21.283h469.082c11.773,0,21.299-9.525,21.299-21.283
		c0-11.774-9.525-21.299-21.299-21.299H21.299C9.541,234.541,0,244.066,0,255.84z"/>
	<path style="fill:#965353;" d="M74.952,436.739c8.308,8.308,21.799,8.308,30.106,0L436.76,105.046
		c8.307-8.323,8.307-21.799,0-30.122c-8.339-8.307-21.799-8.307-30.137,0L74.952,406.618
		C66.629,414.942,66.613,428.417,74.952,436.739z"/>
</g>
<path style="fill:#A85D5D;" d="M320.397,255.84c0,35.648-28.888,64.537-64.561,64.537c-35.633,0-64.537-28.889-64.537-64.537
	c0-35.665,28.903-64.553,64.537-64.553C291.509,191.287,320.397,220.175,320.397,255.84z"/>
<path style="fill:#434A54;" d="M266.486,255.84c0,5.871-4.763,10.634-10.649,10.634c-5.871,0-10.649-4.763-10.649-10.634
	c0-5.887,4.778-10.649,10.649-10.649C261.723,245.191,266.486,249.953,266.486,255.84z"/>
<g style="opacity:0.1;">
	<path d="M420.738,390.598l-64.584-64.553c-8.182,11.695-18.395,21.908-30.105,30.105l64.553,64.553
		C401.625,411.694,411.713,401.606,420.738,390.598z"/>
	<path d="M90.973,121.067l64.553,64.568c8.213-11.711,18.41-21.908,30.105-30.121l-64.552-64.553
		C110.086,99.971,99.983,110.058,90.973,121.067z"/>
</g>
<g style="opacity:0.1;">
	<path d="M277.143,467.72v-91.301c-6.91,1.218-14.029,1.858-21.307,1.858c-7.245,0-14.366-0.641-21.283-1.858v91.301
		c7.011,0.703,14.101,1.062,21.283,1.062C263.035,468.781,270.14,468.423,277.143,467.72z"/>
	<path d="M234.553,43.944v91.301c6.917-1.218,14.038-1.858,21.283-1.858c7.277,0,14.396,0.641,21.307,1.858V43.944
		c-7.003-0.688-14.107-1.046-21.307-1.046C248.653,42.898,241.564,43.257,234.553,43.944z"/>
</g>
<g style="opacity:0.1;">
	<path d="M121.079,420.703l64.552-64.553c-11.695-8.197-21.892-18.41-30.105-30.105l-64.553,64.553
		C99.983,401.606,110.07,411.694,121.079,420.703z"/>
	<path d="M390.602,90.961l-64.553,64.553c11.711,8.213,21.924,18.41,30.105,30.121l64.553-64.568
		C411.713,110.058,401.625,99.971,390.602,90.961z"/>
</g>
<g style="opacity:0.1;">
	<path d="M378.297,255.84c0,7.261-0.656,14.365-1.843,21.283h91.285c0.688-6.996,1.062-14.101,1.062-21.283
		c0-7.199-0.374-14.304-1.062-21.299h-91.285C377.641,241.458,378.297,248.564,378.297,255.84z"/>
	<path d="M133.415,255.84c0-7.276,0.625-14.382,1.842-21.299H43.972c-0.718,6.995-1.062,14.1-1.062,21.299
		c0,7.183,0.344,14.287,1.046,21.283h91.301C134.039,270.205,133.415,263.101,133.415,255.84z"/>
</g>
<path style="fill:#A85D5D;" d="M255.836,64.181c-105.838,0-191.642,85.805-191.642,191.659
	c0,105.839,85.804,191.643,191.643,191.643c105.846,0,191.666-85.804,191.666-191.643
	C447.502,149.986,361.682,64.181,255.836,64.181z M255.836,394.251c-76.435,0-138.411-61.976-138.411-138.411
	c0-76.451,61.976-138.427,138.411-138.427c76.459,0,138.42,61.976,138.42,138.427C394.256,332.276,332.295,394.251,255.836,394.251z
	"/>
<g>
</g>
<g>
</g>
<g>
</g>
<g>
</g>
<g>
</g>
<g>
</g>
<g>
</g>
<g>
</g>
<g>
</g>
<g>
</g>
<g>
</g>
<g>
</g>
<g>
</g>
<g>
</g>
<g>
</g>
</svg>
