<?xml version="1.0" encoding="iso-8859-1"?>
<!-- Generator: Adobe Illustrator 19.0.0, SVG Export Plug-In . SVG Version: 6.00 Build 0)  -->
<svg version="1.1" id="Capa_1" xmlns="http://www.w3.org/2000/svg" xmlns:xlink="http://www.w3.org/1999/xlink" x="0px" y="0px"
	 viewBox="0 0 512 512" style="enable-background:new 0 0 512 512;" xml:space="preserve">
<path style="fill:#CED6E0;" d="M345.6,512v-98.133c0-23.467-19.2-42.667-42.667-42.667h-92.8c-23.467,0-42.667,19.2-42.667,42.667
	V512H345.6z"/>
<g>
	<polygon style="fill:#F3705A;" points="281.6,512 270.933,416 241.067,416 230.4,512 	"/>
	<polygon style="fill:#F3705A;" points="270.933,416 285.867,401.067 256,371.2 226.133,401.067 241.067,416 	"/>
</g>
<path style="fill:#344A5E;" d="M446.933,512l-23.467-100.267c-3.2-13.867-14.933-24.533-28.8-27.733l-73.6-14.933L292.267,512
	H446.933z"/>
<path style="fill:#F3F3F3;" d="M300.8,340.267c0,0,0,5.333-20.267,16S256,370.133,256,370.133l42.667,42.667c0,0,16-41.6,16-42.667
	S302.933,348.8,300.8,340.267z"/>
<path style="fill:#415A6B;" d="M316.8,512v-1.067c10.667-28.8,34.133-102.4,34.133-102.4l-22.4-11.733l13.867-5.333
	c0,0-11.733-18.133-22.4-24.533c-10.667-6.4-10.667-13.867-17.067-18.133c0,0-1.067,20.267-3.2,32
	c-2.133,11.733-16,91.733-20.267,116.267c0,3.2-1.067,8.533-2.133,13.867H316.8V512z"/>
<path style="fill:#344A5E;" d="M219.733,512l-28.8-142.933L116.267,384c-13.867,3.2-25.6,13.867-28.8,27.733L65.067,512H219.733z"/>
<path style="fill:#F3F3F3;" d="M211.2,340.267c0,0,0,5.333,20.267,16S256,370.133,256,370.133L213.333,412.8c0,0-16-41.6-16-42.667
	S209.067,348.8,211.2,340.267z"/>
<path style="fill:#415A6B;" d="M194.133,510.933V512h38.4c-1.067-6.4-1.067-11.733-2.133-13.867
	c-4.267-24.533-18.133-103.467-20.267-116.267c-2.133-11.733-3.2-32-3.2-32c-6.4,4.267-6.4,12.8-17.067,18.133
	c-10.667,6.4-22.4,24.533-22.4,24.533l13.867,5.333L160,408.533C160,408.533,183.467,482.133,194.133,510.933z"/>
<path style="fill:#FFD15C;" d="M359.467,150.4c5.333,40.533-12.8,77.867-42.667,99.2c-11.733,8.533-18.133,21.333-18.133,35.2v7.467
	c0,8.533-6.4,14.933-14.933,14.933h-54.4c-8.533,0-14.933-6.4-14.933-14.933V284.8c0-13.867-7.467-26.667-18.133-35.2
	c-26.667-19.2-43.733-50.133-43.733-84.267c0-61.867,53.333-110.933,116.267-103.467C314.667,66.133,353.067,103.467,359.467,150.4z
	"/>
<path style="fill:#344A5E;" d="M234.667,334.933c3.2,8.533,11.733,14.933,21.333,14.933c9.6,0,18.133-6.4,21.333-14.933H234.667z"/>
<path style="fill:#415A6B;" d="M213.333,286.933V323.2c0,8.533,6.4,14.933,14.933,14.933h54.4c8.533,0,14.933-6.4,14.933-14.933
	v-36.267H213.333z"/>
<g>
	<path style="fill:#344A5E;" d="M299.733,282.667h-86.4c-4.267,0-7.467,3.2-7.467,7.467l0,0c0,4.267,3.2,7.467,7.467,7.467h86.4
		c4.267,0,7.467-3.2,7.467-7.467l0,0C307.2,285.867,304,282.667,299.733,282.667z"/>
	<path style="fill:#344A5E;" d="M299.733,308.267h-86.4c-4.267,0-7.467,3.2-7.467,7.467l0,0c0,4.267,3.2,7.467,7.467,7.467h86.4
		c4.267,0,7.467-3.2,7.467-7.467l0,0C307.2,311.467,304,308.267,299.733,308.267z"/>
</g>
<g>
	<path style="fill:#FFD15C;" d="M357.333,281.6L339.2,263.467c-4.267-4.267-4.267-10.667,0-14.933
		c4.267-4.267,10.667-4.267,14.933,0l18.133,18.133c4.267,4.267,4.267,10.667,0,14.933C368,284.8,361.6,284.8,357.333,281.6z"/>
	<path style="fill:#FFD15C;" d="M410.667,174.933h-25.6c-5.333,0-10.667-4.267-10.667-10.667c0-5.333,4.267-10.667,10.667-10.667
		h25.6c5.333,0,10.667,4.267,10.667,10.667C420.267,170.667,416,174.933,410.667,174.933z"/>
	<path style="fill:#FFD15C;" d="M372.267,62.933l-18.133,18.133c-4.267,4.267-10.667,4.267-14.933,0
		c-4.267-4.267-4.267-10.667,0-14.933L357.333,48c4.267-4.267,10.667-4.267,14.933,0C376.533,52.267,376.533,58.667,372.267,62.933z
		"/>
	<path style="fill:#FFD15C;" d="M266.667,10.667v25.6c0,5.333-4.267,10.667-10.667,10.667c-5.333,0-10.667-4.267-10.667-10.667
		v-25.6C245.333,5.333,249.6,0,256,0C261.333,0,266.667,4.267,266.667,10.667z"/>
	<path style="fill:#FFD15C;" d="M154.667,48L172.8,66.133c4.267,4.267,4.267,10.667,0,14.933c-4.267,4.267-10.667,4.267-14.933,0
		l-18.133-18.133c-4.267-4.267-4.267-10.667,0-14.933S150.4,43.733,154.667,48z"/>
	<path style="fill:#FFD15C;" d="M101.333,154.667h25.6c5.333,0,10.667,4.267,10.667,10.667c0,5.333-4.267,10.667-10.667,10.667
		h-25.6c-5.333,0-10.667-4.267-10.667-10.667C91.733,158.933,96,154.667,101.333,154.667z"/>
	<path style="fill:#FFD15C;" d="M139.733,266.667l18.133-18.133c4.267-4.267,10.667-4.267,14.933,0
		c4.267,4.267,4.267,10.667,0,14.933L154.667,281.6c-4.267,4.267-10.667,4.267-14.933,0
		C135.467,277.333,135.467,270.933,139.733,266.667z"/>
</g>
<polygon style="fill:#FFFFFF;" points="235.733,226.133 246.4,176 221.867,176 276.267,114.133 265.6,164.267 290.133,164.267 "/>
<g>
</g>
<g>
</g>
<g>
</g>
<g>
</g>
<g>
</g>
<g>
</g>
<g>
</g>
<g>
</g>
<g>
</g>
<g>
</g>
<g>
</g>
<g>
</g>
<g>
</g>
<g>
</g>
<g>
</g>
</svg>
