<?xml version="1.0" encoding="iso-8859-1"?>
<!-- Generator: Adobe Illustrator 19.0.0, SVG Export Plug-In . SVG Version: 6.00 Build 0)  -->
<svg version="1.1" id="Capa_1" xmlns="http://www.w3.org/2000/svg" xmlns:xlink="http://www.w3.org/1999/xlink" x="0px" y="0px"
	 viewBox="0 0 512 512" style="enable-background:new 0 0 512 512;" xml:space="preserve">
<g>
	<path style="fill:#2C3E50;" d="M256,452.267c-2.263,0.001-4.434-0.898-6.035-2.499c-1.6-1.6-2.499-3.771-2.499-6.035V8.533
		C247.467,3.821,251.287,0,256,0c4.713,0,8.533,3.821,8.533,8.533v435.2c0.001,2.263-0.898,4.434-2.499,6.035
		C260.434,451.368,258.263,452.267,256,452.267z"/>
	<path style="fill:#90BAE1;" d="M46.051,225.323h39.283v136.533H46.051c-11.295,0-20.451-9.156-20.451-20.451v-95.632
		C25.6,234.48,34.756,225.323,46.051,225.323z"/>
	<path style="fill:#9BC8C2;" d="M256,443.733c-56.554,0-102.4,26.743-102.4,59.733h204.8C358.4,470.477,312.554,443.733,256,443.733
		z"/>
	<g>
		<path style="fill:#90BAE1;" d="M153.6,225.323l26.635,26.635c4.801,4.801,11.312,7.498,18.102,7.498H230.4
			c14.139,0,25.6,11.462,25.6,25.6c0,14.138-11.461,25.6-25.6,25.6h-49.129c-6.79,0-13.301-2.697-18.102-7.498l-77.835-77.835H153.6
			z"/>
		<path style="fill:#90BAE1;" d="M153.6,360.363v112.469c-0.016,16.912-13.722,30.618-30.635,30.635h-6.997
			c-16.912-0.016-30.618-13.722-30.635-30.635V360.363H153.6z"/>
	</g>
	<polygon style="fill:#B0D3F0;" points="153.6,293.632 153.6,360.363 85.333,360.363 85.333,225.365 	"/>
	<path style="fill:#C03A2B;" d="M452.267,67.584h-59.733V33.451c-0.197-4.52-4.012-8.03-8.533-7.851H264.533
		c-4.521-0.18-8.336,3.33-8.533,7.851v61.099c0.197,4.52,4.012,8.03,8.533,7.851H332.8v42.667c-0.02,2.371,0.973,4.638,2.731,6.229
		c1.567,1.483,3.645,2.308,5.803,2.304h110.933c4.707-0.014,8.519-3.826,8.533-8.533V76.117
		C460.786,71.41,456.974,67.598,452.267,67.584z"/>
	<g>
		<path style="fill:#E64C3C;" d="M392.533,33.451V102.4h-128c-4.521,0.179-8.336-3.33-8.533-7.851V33.451
			c0.197-4.52,4.012-8.03,8.533-7.851H384C388.521,25.42,392.336,28.93,392.533,33.451z"/>
		<path style="fill:#E64C3C;" d="M460.8,76.117v68.949c-0.014,4.707-3.826,8.519-8.533,8.533H341.333
			c-2.158,0.004-4.235-0.821-5.803-2.304l57.003-48.896V67.584h59.733C456.974,67.598,460.786,71.41,460.8,76.117z"/>
	</g>
	<path style="fill:#B0D3F0;" d="M119.467,85.333c-20.746,0-40.61,8.393-55.07,23.27s-22.287,34.97-21.7,55.708
		c1.564,40.531,34.062,73.029,74.593,74.593c20.738,0.588,40.831-7.239,55.708-21.7c14.876-14.46,23.269-34.324,23.27-55.07h-59.733
		c-9.426,0-17.067-7.641-17.067-17.067V85.333z"/>
	<path style="fill:#2FA8CC;" d="M119.467,85.333v59.733c0,9.426,7.641,17.067,17.067,17.067h59.733
		C196.267,119.718,161.882,85.333,119.467,85.333z"/>
	<path style="fill:#41767F;" d="M503.467,512H8.533C3.821,512,0,508.18,0,503.467c0-4.713,3.821-8.533,8.533-8.533h494.933
		c4.713,0,8.533,3.821,8.533,8.533C512,508.18,508.18,512,503.467,512z"/>
</g>
<g>
</g>
<g>
</g>
<g>
</g>
<g>
</g>
<g>
</g>
<g>
</g>
<g>
</g>
<g>
</g>
<g>
</g>
<g>
</g>
<g>
</g>
<g>
</g>
<g>
</g>
<g>
</g>
<g>
</g>
</svg>
