<svg id="Layer_1" enable-background="new 0 0 512 512" height="512" viewBox="0 0 512 512" width="512" xmlns="http://www.w3.org/2000/svg"><g><path d="m182.815 245.892-46.774-32.269c-1.802-1.232-2.041-3.798-.497-5.341l23.576-23.576c2.865-2.865 6.841-4.33 10.88-4.008l70.148 5.205z" fill="#3c85c9"/><path d="m273.451 333.289 27.208 44.951c1.232 1.802 3.798 2.041 5.341.497l23.576-23.576c2.865-2.865 4.33-6.841 4.008-10.88l-5.273-66.914z" fill="#3c85c9"/><path d="m181.472 381.407-48.598-48.598c-1.613-1.613-1.878-4.134-.636-6.047l32.056-49.396 72.621 72.621-49.396 32.056c-1.914 1.243-4.435.977-6.047-.636z" fill="#e82a40"/><path d="m215.061 328.135-52.677 34.185 19.088 19.088c1.613 1.613 4.134 1.878 6.047.637l49.396-32.056z" fill="#d6243a"/><path d="m448.281 163.613-198.366 198.365c-2.581 2.581-6.766 2.581-9.347 0l-88.265-88.265c-2.581-2.581-2.581-6.766 0-9.347l201.077-201.076c28.872-28.872 65.125-49.405 104.931-58.758 21.467-5.044 41.464-7.045 48.715.205 6.268 6.268 5.915 22.37 2.753 40.804-7.688 44.818-29.4 85.974-61.498 118.072z" fill="#efefef"/><path d="m509.779 45.541c3.162-18.434 3.515-34.536-2.753-40.804-3.32-3.32-9.318-4.696-16.9-4.732.152 6.858-.713 15.012-2.2 23.683-7.688 44.818-29.4 85.973-61.498 118.072l-198.366 198.365c-2.581 2.581-6.766 2.581-9.347 0l21.853 21.853c2.581 2.581 6.766 2.581 9.347 0l198.365-198.365c32.099-32.099 53.811-73.254 61.499-118.072z" fill="#dcdcdc"/><path d="m448.282 163.611-14.503 14.503-97.612-97.612 17.213-17.213c28.868-28.868 65.123-49.403 104.926-58.757 21.474-5.041 41.47-7.044 48.718.204 6.272 6.272 5.922 22.371 2.753 40.808-7.691 44.814-29.399 85.972-61.495 118.067z" fill="#e82a40"/><path d="m509.778 45.544c3.169-18.437 3.518-34.536-2.753-40.808-3.319-3.319-9.315-4.693-16.896-4.73.152 6.858-.714 15.012-2.204 23.684-7.692 44.814-29.4 85.971-61.496 118.067l-14.503 14.503 21.853 21.853 14.503-14.503c32.096-32.094 53.804-73.252 61.496-118.066z" fill="#d6243a"/><path d="m254.601 169.024h138.044v43.268h-138.044z" fill="#3c85c9" transform="matrix(.707 .707 -.707 .707 229.603 -172.994)"/><path d="m339.869 213.085h43.268v30.905h-43.268z" fill="#3479ba" transform="matrix(.707 -.707 .707 .707 -55.719 322.558)"/><path d="m111.68 360.481c-39.734 11.846-94.933 46.83-111.648 148.813-.273 1.665 1.268 3.06 2.898 2.626 19.77-5.268 118.671-35.263 145.339-114.199 7.607-22.519-13.582-44.1-36.589-37.24z" fill="#f27a2a"/><path d="m111.68 360.481c-2.519.751-5.101 1.596-7.732 2.544 11.469 6.508 18.242 20.407 13.415 34.695-19.655 58.18-78.546 89.77-116.077 104.471-.437 2.335-.86 4.694-1.255 7.103-.273 1.665 1.268 3.06 2.898 2.626 19.77-5.268 118.672-35.263 145.339-114.199 7.608-22.519-13.581-44.1-36.588-37.24z" fill="#f25817"/></g></svg>