<svg height="512pt" viewBox="0 0 512 511" width="512pt" xmlns="http://www.w3.org/2000/svg"><path d="m392.054688 512.046875h-272.109376c-66.242187 0-119.945312-53.699219-119.945312-119.945313v-271.65625c0-66.242187 53.703125-119.945312 119.945312-119.945312h272.109376c66.242187 0 119.945312 53.703125 119.945312 119.945312v271.65625c0 66.246094-53.703125 119.945313-119.945312 119.945313zm0 0" fill="#0076de"/><path d="m392 .5h-40c66.273438 0 120 53.679688 120 119.894531v271.757813c0 66.21875-53.726562 119.894531-120 119.894531h40c66.273438 0 120-53.675781 120-119.894531v-271.757813c0-66.214843-53.726562-119.894531-120-119.894531zm0 0" fill="#005eb0"/><path d="m179.378906 242.535156.445313-19.105468c.175781-7.53125 5.917969-13.757813 13.414062-14.554688l94.140625-9.988281c8.910156-.945313 16.65625 6.074219 16.582032 15.023437l-1.507813 181.597656 15.988281.871094c7.957032.433594 14.183594 7.003906 14.183594 14.960938v15.816406c0 8.257812-6.683594 14.957031-14.945312 14.988281l-120.113282.4375c-8.378906.03125-15.15625-6.800781-15.054687-15.167969l.191406-15.675781c.09375-7.898437 6.308594-14.367187 14.203125-14.785156l17.039062-.898437.195313-137.5625-20.234375-.632813c-8.234375-.253906-14.71875-7.097656-14.527344-15.324219zm0 0" fill="#fff"/><path d="m306 116.820312c0-29.5-23.9375-53.414062-53.464844-53.414062-29.523437 0-53.460937 23.914062-53.460937 53.414062 0 29.503907 23.9375 53.417969 53.460937 53.417969 29.527344 0 53.464844-23.914062 53.464844-53.417969zm0 0" fill="#fff"/><g fill="#e6e6e6"><path d="m318.441406 396.378906-15.988281-.871094 1.507813-181.59375c.074218-8.953124-7.675782-15.972656-16.585938-15.027343l-29.199219 3.097656c3.53125 2.753906 5.824219 7.046875 5.785157 11.929687l-1.507813 181.59375 15.988281.871094c7.953125.433594 14.183594 7.003906 14.183594 14.964844v15.816406c0 8.253906-6.683594 14.957032-14.945312 14.984375l-82.101563.300781c.652344.082032 1.308594.140626 1.984375.140626l120.117188-.4375c8.261718-.03125 14.941406-6.734376 14.941406-14.988282v-15.816406c.003906-7.960938-6.226563-14.53125-14.179688-14.964844zm0 0"/><path d="m252.535156 63.40625c-7.070312 0-13.816406 1.386719-20 3.878906 19.617188 7.914063 33.464844 27.105469 33.464844 49.535156 0 22.433594-13.847656 41.625-33.464844 49.539063 6.183594 2.492187 12.929688 3.878906 20 3.878906 29.527344 0 53.464844-23.917969 53.464844-53.417969s-23.9375-53.414062-53.464844-53.414062zm0 0"/></g></svg>